<?xml version="1.0" encoding="UTF-8" standalone="no"?>
<!-- Created with Inkscape (http://www.inkscape.org/) -->
<svg xmlns:dc="http://purl.org/dc/elements/1.1/" xmlns:cc="http://creativecommons.org/ns#" xmlns:rdf="http://www.w3.org/1999/02/22-rdf-syntax-ns#" xmlns:svg="http://www.w3.org/2000/svg" xmlns="http://www.w3.org/2000/svg" xmlns:sodipodi="http://sodipodi.sourceforge.net/DTD/sodipodi-0.dtd" xmlns:inkscape="http://www.inkscape.org/namespaces/inkscape" width="500" height="108.35" id="svg2" sodipodi:version="0.32" inkscape:version="0.46" version="1.0" sodipodi:docname="Logo Labour Partei.svg" inkscape:output_extension="org.inkscape.output.svg.inkscape">
  <defs id="defs4">
    <inkscape:perspective sodipodi:type="inkscape:persp3d" inkscape:vp_x="0 : 526.18109 : 1" inkscape:vp_y="0 : 1000 : 0" inkscape:vp_z="744.09448 : 526.18109 : 1" inkscape:persp3d-origin="372.04724 : 350.78739 : 1" id="perspective10"/>
    <clipPath id="clipPath2688" clipPathUnits="userSpaceOnUse">
      <path id="path2690" d="M 0,0 L 595.276,0 L 595.276,841.89 L 0,841.89 L 0,0 z"/>
    </clipPath>
    <clipPath id="clipPath2666" clipPathUnits="userSpaceOnUse">
      <path id="path2668" d="M 0,0 L 595.276,0 L 595.276,841.89 L 0,841.89 L 0,0 z"/>
    </clipPath>
    <clipPath id="clipPath2608" clipPathUnits="userSpaceOnUse">
      <path id="path2610" d="M 0,0 L 595.276,0 L 595.276,841.89 L 0,841.89 L 0,0 z"/>
    </clipPath>
    <clipPath id="clipPath2532" clipPathUnits="userSpaceOnUse">
      <path id="path2534" d="M 0,0 L 595.276,0 L 595.276,841.89 L 0,841.89 L 0,0 z"/>
    </clipPath>
    <clipPath id="clipPath2520" clipPathUnits="userSpaceOnUse">
      <path id="path2522" d="M 303.307,234.545 L 570.709,234.545 L 570.709,528.839 L 303.307,528.839 L 303.307,234.545 z"/>
    </clipPath>
    <clipPath id="clipPath2420" clipPathUnits="userSpaceOnUse">
      <path id="path2422" d="M 0,0 L 595.276,0 L 595.276,841.89 L 0,841.89 L 0,0 z"/>
    </clipPath>
    <inkscape:perspective id="perspective2410" inkscape:persp3d-origin="372.04724 : 350.78739 : 1" inkscape:vp_z="744.09448 : 526.18109 : 1" inkscape:vp_y="0 : 1000 : 0" inkscape:vp_x="0 : 526.18109 : 1" sodipodi:type="inkscape:persp3d"/>
  </defs>
  <sodipodi:namedview id="base" pagecolor="#ffffff" bordercolor="#666666" borderopacity="1.0" inkscape:pageopacity="0.0" inkscape:pageshadow="2" inkscape:zoom="0.12374369" inkscape:cx="2391.4382" inkscape:cy="2120.3026" inkscape:document-units="px" inkscape:current-layer="layer1" showgrid="false" inkscape:window-width="1280" inkscape:window-height="750" inkscape:window-x="-8" inkscape:window-y="-8"/>
  <metadata id="metadata7">
    <rdf:RDF>
      <cc:Work rdf:about="">
        <dc:format>image/svg+xml</dc:format>
        <dc:type rdf:resource="http://purl.org/dc/dcmitype/StillImage"/>
      </cc:Work>
    </rdf:RDF>
  </metadata>
  <g inkscape:label="Ebene 1" inkscape:groupmode="layer" id="layer1" transform="translate(-2007.74, -813.399)">
    <g id="g3316" transform="matrix(3.60668, 0, 0, 3.60668, 2657.05, -2304.52)">
      <g style="fill: rgb(196, 18, 48); fill-opacity: 1;" transform="matrix(1.25, 0, 0, -1.25, -168.886, 891.138)" id="g2564">
        <path id="path2566" style="fill: rgb(196, 18, 48); fill-opacity: 1; fill-rule: nonzero; stroke: none;" d="M 0,0 C -0.115,-0.026 -0.209,-0.112 -0.277,-0.195 L 1.433,-0.195 C 1.258,0.134 1.047,0.545 1.022,0.664 C 1.022,0.664 0.239,0.055 0,0"/>
      </g>
      <g style="fill: rgb(196, 18, 48); fill-opacity: 1;" transform="matrix(1.25, 0, 0, -1.25, -172.163, 890.376)" id="g2568">
        <path id="path2570" style="fill: rgb(196, 18, 48); fill-opacity: 1; fill-rule: nonzero; stroke: none;" d="M 0,0 C 0.011,0.174 0,0.762 -0.109,0.892 C -0.109,0.892 -0.174,0.533 -0.228,0.413 C -0.265,0.333 -0.574,-0.361 -0.771,-0.805 L 0.221,-0.805 C 0.193,-0.722 0.158,-0.625 0.131,-0.566 C 0.076,-0.446 -0.011,-0.174 0,0"/>
      </g>
      <g style="fill: rgb(196, 18, 48); fill-opacity: 1;" transform="matrix(1.25, 0, 0, -1.25, -137.026, 888.015)" id="g2572">
        <path id="path2574" style="fill: rgb(196, 18, 48); fill-opacity: 1; fill-rule: nonzero; stroke: none;" d="M 0,0 L -6.502,-0.007 C -6.72,-0.007 -6.896,0.17 -6.896,0.387 L -6.901,16.183 C -6.901,16.401 -7.078,16.578 -7.296,16.578 L -9.787,16.578 C -10.005,16.578 -10.181,16.401 -10.181,16.183 L -10.181,-2.234 C -10.181,-2.452 -10.005,-2.629 -9.787,-2.629 L -8.275,-2.629 C -8.243,-2.636 -8.212,-2.642 -8.178,-2.642 L 0,-2.642 C 0.218,-2.642 0.395,-2.465 0.395,-2.247 L 0.395,-0.394 C 0.395,-0.177 0.218,0 0,0"/>
      </g>
      <g style="fill: rgb(196, 18, 48); fill-opacity: 1;" transform="matrix(1.25, 0, 0, -1.25, -60.1174, 882.597)" id="g2576">
        <path id="path2578" style="fill: rgb(196, 18, 48); fill-opacity: 1; fill-rule: nonzero; stroke: none;" d="M 0,0 L 0,7.845 C 0,8.063 0.176,8.24 0.394,8.24 L 2.737,8.24 C 2.956,8.24 3.132,8.063 3.132,7.845 L 3.132,-1.33 L 3.132,-6.708 C 3.132,-6.926 2.956,-7.102 2.737,-7.102 L 1.7,-7.102 C 1.7,-7.102 1.384,-7.054 1.249,-6.671 C 1.114,-6.288 0.956,-5.679 0.956,-5.679 C 0.956,-5.679 0.799,-4.958 0.37,-5.432 C -0.058,-5.905 -1.923,-7.36 -5.557,-7.325 C -11.347,-7.268 -11.03,-1.536 -11.03,-0.324 L -11.03,7.903 C -11.03,8.121 -10.853,8.298 -10.635,8.298 L -8.292,8.298 C -8.074,8.298 -7.898,8.121 -7.898,7.903 L -7.898,-0.485 C -7.898,-1.482 -7.982,-4.633 -4.346,-4.633 C -0.979,-4.633 -0.098,-3.071 0,0"/>
      </g>
      <g style="fill: rgb(196, 18, 48); fill-opacity: 1;" transform="matrix(1.25, 0, 0, -1.25, -50.6198, 874.198)" id="g2580">
        <path id="path2582" style="fill: rgb(196, 18, 48); fill-opacity: 1; fill-rule: nonzero; stroke: none;" d="M 0,0 C -0.428,-0.473 -0.586,0.248 -0.586,0.248 C -0.586,0.248 -0.743,0.856 -0.879,1.24 C -1.014,1.623 -1.33,1.671 -1.33,1.671 L -2.367,1.671 C -2.585,1.671 -2.762,1.494 -2.762,1.276 L -2.791,-13.387 C -2.791,-13.604 -2.614,-13.781 -2.396,-13.781 L -0.053,-13.781 C 0.164,-13.781 0.341,-13.604 0.341,-13.387 L 0.341,-4.211 C 0.446,-3.487 0.869,-1.303 3.22,-1.009 C 4.082,-0.901 4.54,-0.982 4.54,-0.982 C 4.944,-0.982 5.159,-0.928 5.159,-0.47 C 5.159,-0.013 5.133,1.334 5.133,1.334 C 5.133,1.334 5.105,1.927 4.567,1.9 C 4.028,1.873 2.116,1.738 1.227,1.119 C 0.338,0.499 0,0 0,0"/>
      </g>
      <g style="fill: rgb(196, 18, 48); fill-opacity: 1;" transform="matrix(1.25, 0, 0, -1.25, -119.273, 873.699)" id="g2584">
        <path id="path2586" style="fill: rgb(196, 18, 48); fill-opacity: 1; fill-rule: nonzero; stroke: none;" d="M 0,0 C -1.768,1.728 -5.442,1.549 -5.442,1.549 C -12.533,1.768 -12.235,-3.337 -12.235,-3.337 L -12.237,-3.758 C -12.237,-3.976 -12.06,-4.153 -11.842,-4.153 L -9.577,-4.153 C -9.359,-4.153 -9.183,-3.976 -9.183,-3.758 L -9.145,-3.283 C -9.145,-3.283 -8.881,-0.865 -5.581,-1.013 C -2.026,-1.172 -1.807,-2.503 -1.629,-4.112 C -1.629,-4.112 -1.609,-4.449 -1.887,-4.509 C -2.165,-4.568 -8.223,-5.006 -10.626,-6.058 C -13.03,-7.111 -12.772,-9.514 -12.772,-9.792 C -12.772,-10.07 -12.89,-14.105 -6.634,-14.242 C -2.999,-14.321 -1.172,-12.255 -1.172,-12.255 C -1.013,-12.096 -0.854,-11.958 -0.695,-12.335 C -0.536,-12.712 -0.377,-14.023 0.119,-14.063 C 0.616,-14.103 1.073,-14.083 1.073,-14.083 C 1.073,-14.083 1.569,-14.103 1.569,-13.646 C 1.569,-13.189 1.549,-4.608 1.549,-4.608 C 1.549,-4.608 1.659,-1.622 0,0 M -1.629,-7.627 C -1.629,-7.627 -1.648,-8.024 -1.728,-8.64 C -1.933,-10.228 -3.357,-11.56 -5.323,-11.739 C -7.29,-11.918 -9.375,-11.461 -9.474,-9.554 C -9.574,-7.647 -5.919,-7.489 -5.343,-7.409 C -4.767,-7.329 -2.764,-7.118 -2.066,-7.071 C -1.768,-7.051 -1.589,-7.21 -1.629,-7.627"/>
      </g>
      <g style="fill: rgb(196, 18, 48); fill-opacity: 1;" transform="matrix(1.25, 0, 0, -1.25, -104.499, 871.975)" id="g2588">
        <path id="path2590" style="fill: rgb(196, 18, 48); fill-opacity: 1; fill-rule: nonzero; stroke: none;" d="M 0,0 C -3.651,0.045 -4.913,-1.533 -4.913,-1.533 C -4.913,-1.533 -5.409,-2.073 -5.364,-1.398 C -5.319,-0.721 -5.4,3.234 -5.4,3.234 C -5.4,3.452 -5.576,3.629 -5.794,3.629 L -8.137,3.629 C -8.355,3.629 -8.532,3.452 -8.532,3.234 L -8.532,-15.182 C -8.532,-15.4 -8.355,-15.577 -8.137,-15.577 L -7.099,-15.577 C -7.099,-15.577 -6.784,-15.529 -6.649,-15.145 C -6.513,-14.763 -6.356,-14.154 -6.356,-14.154 C -6.356,-14.154 -6.198,-13.432 -5.77,-13.906 C -5.342,-14.379 -3.471,-16.002 0.158,-15.799 C 3.786,-15.596 6.401,-13.343 6.356,-7.798 C 6.311,-2.254 3.651,-0.045 0,0 M 3.11,-8.159 C 3.088,-9.173 3.405,-13.25 -1.307,-13.162 C -4.936,-13.094 -5.409,-10.593 -5.432,-8.091 C -5.46,-4.98 -4.778,-2.592 -1.014,-2.66 C 2.75,-2.727 3.177,-5.161 3.11,-8.159"/>
      </g>
      <g style="fill: rgb(196, 18, 48); fill-opacity: 1;" transform="matrix(1.25, 0, 0, -1.25, -155.676, 885.734)" id="g2592">
        <path id="path2594" style="fill: rgb(196, 18, 48); fill-opacity: 1; fill-rule: nonzero; stroke: none;" d="M 0,0 C -0.131,-0.272 -0.337,-0.326 -0.468,-0.348 C -0.598,-0.37 -0.642,-0.446 -0.794,-0.631 C -0.946,-0.816 -1.131,-1.098 -1.795,-2.067 C -2.458,-3.035 -4.449,-2.665 -5.558,-2.437 C -6.667,-2.208 -6.831,-1.86 -6.918,-1.088 C -7.005,-0.315 -6.439,0.142 -6.276,0.218 C -6.113,0.294 -5.395,0.577 -4.949,0.968 C -4.503,1.359 -3.785,1.436 -3.676,1.436 C -3.568,1.436 -3.274,1.458 -2.295,1.567 C -1.316,1.675 -0.326,1.414 0.348,1.207 C 0.916,1.033 2.054,0.397 2.6,0.09 L 2.6,13.302 C 2.6,14.119 1.938,14.782 1.12,14.782 L -0.396,14.782 C 0.146,14.324 0.963,13.411 1.1,12.497 C 1.272,11.356 -0.003,10.976 -0.108,10.939 C -0.212,10.902 -0.257,10.879 -0.257,10.879 C -0.637,11.669 -0.294,12.012 -0.137,12.243 C 0.019,12.474 -0.212,12.586 -0.451,12.691 C -0.689,12.795 -0.771,12.899 -0.808,13.026 C -0.846,13.153 -0.868,13.332 -0.957,13.518 C -1.047,13.705 -1.218,13.734 -1.375,13.749 C -1.531,13.764 -1.658,13.854 -1.748,13.876 C -1.837,13.898 -1.971,13.898 -1.971,13.898 L -1.964,13.771 C -1.964,13.771 -2.396,13.995 -2.814,14.301 C -3.111,14.519 -3.189,14.59 -3.307,14.782 L -3.965,14.782 C -3.929,14.607 -3.869,14.506 -3.813,14.428 C -3.738,14.323 -3.94,14.04 -4.133,13.981 C -4.327,13.921 -4.775,14.062 -4.775,14.062 C -5.408,13.891 -5.386,13.995 -6.139,13.884 C -6.892,13.772 -7.026,13.272 -7.16,12.967 C -7.295,12.661 -7.056,12.773 -7.414,12.266 C -7.772,11.759 -8.54,11.594 -8.853,11.602 C -9.166,11.609 -9.069,11.647 -9.054,10.663 C -9.039,9.679 -8.898,9.813 -8.569,9.731 C -8.241,9.649 -8.115,10.089 -8.062,10.156 C -8.01,10.223 -8.003,10.313 -8.077,10.32 C -8.441,10.356 -8.659,10.432 -8.763,10.529 C -8.867,10.626 -8.718,10.819 -8.547,10.939 C -8.376,11.058 -7.861,11.334 -7.712,11.401 C -7.563,11.468 -7.13,11.609 -6.936,11.647 C -6.742,11.684 -6.713,11.513 -6.668,11.423 C -6.629,11.345 -6.653,11.259 -6.482,11.281 C -5.466,11.414 -5.244,11.252 -5.177,11.259 C -5.11,11.267 -5.02,11.341 -5.005,11.468 C -4.991,11.594 -5.348,11.669 -5.512,11.714 C -5.676,11.759 -6.616,11.774 -6.616,11.774 C -6.616,11.774 -6.854,11.96 -6.899,12.407 C -6.944,12.854 -5.818,13.309 -5.416,13.421 C -5.013,13.533 -4.036,13.675 -2.926,13.526 C -1.814,13.377 -1.345,12.683 -1.151,11.922 C -0.957,11.162 -1.546,10.924 -1.636,10.916 C -1.725,10.909 -1.919,10.722 -2.001,10.581 C -2.083,10.439 -2.344,10.245 -2.53,10.133 C -2.717,10.022 -3,9.775 -3,9.775 C -3,9.775 -3.007,9.589 -3.239,9.499 C -3.47,9.41 -3.641,9.88 -3.783,10.193 C -3.924,10.506 -4.051,10.641 -4.171,10.886 C -4.29,11.132 -4.484,11.185 -4.558,11.185 C -4.633,11.185 -4.655,11.058 -4.655,10.857 C -4.655,10.655 -4.841,10.454 -5.155,10.253 C -5.468,10.051 -6.102,10.394 -6.176,10.424 C -6.251,10.454 -6.608,10.596 -6.713,10.641 C -6.817,10.685 -6.855,10.752 -6.944,10.857 C -7.034,10.961 -7.197,10.782 -7.25,10.745 C -7.302,10.707 -7.376,10.641 -7.242,10.469 C -7.108,10.298 -6.683,10.156 -6.482,10.096 C -6.28,10.037 -6.057,9.768 -5.937,9.671 C -5.818,9.574 -5.691,9.484 -5.609,9.537 C -5.055,9.89 -4.379,9.985 -4.268,9.985 C -4.156,9.985 -3.686,9.977 -3.917,9.261 C -4.234,8.278 -5.267,8.076 -6.064,8.046 C -6.862,8.016 -7.272,8.217 -7.317,8.217 C -7.361,8.217 -7.369,8.128 -7.347,8.128 C -7.324,8.128 -7.063,7.941 -6.869,7.807 C -6.676,7.673 -6.348,7.464 -6.213,7.464 C -6.079,7.464 -5.639,7.613 -5.49,7.651 C -5.341,7.688 -4.976,7.777 -4.685,7.867 C -4.394,7.956 -3.276,8.858 -3.075,9.06 C -2.873,9.261 -2.717,9.731 -2.642,9.753 C -2.568,9.775 -2.426,9.656 -2.314,9.641 C -2.202,9.627 -1.964,9.962 -1.904,10.201 C -1.844,10.439 -1.829,10.469 -1.762,10.484 C -1.695,10.499 -1.673,10.335 -1.673,10.335 C -1.673,10.335 -1.591,9.917 -1.628,9.336 C -1.665,8.754 -1.718,8.605 -1.889,8.113 C -2.061,7.621 -2.649,7.569 -2.843,7.509 C -3.037,7.449 -3.522,7.293 -3.865,7.233 C -4.208,7.174 -4.387,7.36 -4.618,7.464 C -4.7,7.501 -5.147,7.576 -5.184,7.449 C -5.345,6.904 -4.379,6.607 -4.223,6.57 C -3.2,6.326 -1.777,6.816 -1.703,7.427 C -1.59,8.348 -1.487,8.456 -1.367,8.59 C -1.248,8.724 -0.927,8.612 -0.927,8.612 C -0.808,8.732 -0.249,9.142 -0.249,9.142 C -0.249,9.142 -0.07,9.231 -0.16,9.373 C -0.249,9.514 -0.309,10.088 0.4,10.014 C 1.108,9.939 1.346,8.941 1.346,8.941 C 1.346,8.941 1.63,8.351 1.428,6.853 C 1.227,5.355 -0.771,3.818 -2.59,3.245 C -4.409,2.671 -5.274,2.737 -5.498,2.737 C -5.721,2.737 -6.169,2.916 -6.318,2.946 C -6.467,2.976 -6.847,3.23 -6.974,3.282 C -7.101,3.334 -7.54,3.558 -7.637,3.602 C -7.734,3.647 -8.077,3.863 -8.278,4.005 C -8.48,4.146 -8.532,4.296 -8.599,4.445 C -8.666,4.594 -9.031,4.884 -9.076,4.922 C -9.121,4.959 -9.076,5.019 -9.076,5.019 C -8.659,4.84 -5.841,4.445 -5.617,4.437 C -5.393,4.43 -4.372,4.4 -4.238,4.4 C -4.104,4.4 -3.865,4.318 -3.858,4.49 C -3.85,4.661 -4.64,4.78 -4.73,4.788 C -4.819,4.795 -5.214,4.803 -5.505,4.84 C -5.796,4.877 -6.497,5.966 -6.594,6.107 C -6.69,6.249 -6.728,6.212 -6.907,6.301 C -7.086,6.391 -7.712,6.875 -7.787,6.958 C -7.861,7.039 -7.727,7.352 -7.801,7.434 C -7.876,7.517 -8.115,7.383 -8.303,7.298 C -8.748,7.097 -8.912,7.327 -8.912,7.327 L -9.521,7.966 L -9.666,7.647 C -9.666,7.647 -8.129,6.399 -7.694,6.051 C -7.258,5.703 -7.578,5.587 -7.578,5.587 C -7.578,5.587 -7.897,5.239 -8.013,5.21 C -8.129,5.181 -9.057,5.355 -9.782,5.558 C -10.507,5.761 -10.739,5.993 -11.464,6.631 C -12.189,7.269 -12.479,8.922 -12.392,9.242 C -12.305,9.561 -12.276,10.054 -12.334,10.199 C -12.392,10.344 -12.508,10.837 -12.247,10.837 C -11.986,10.837 -11.783,10.257 -11.174,9.561 C -10.565,8.865 -9.898,8.633 -9.637,8.778 C -9.376,8.923 -9.724,9.358 -9.869,9.619 C -10.014,9.88 -9.985,9.967 -10.565,10.692 C -11.145,11.417 -10.739,11.968 -10.623,12.229 C -10.507,12.49 -10.159,12.983 -10.072,13.796 C -10.025,14.23 -9.854,14.523 -9.602,14.782 L -15.785,14.782 C -16.603,14.782 -17.265,14.119 -17.265,13.302 L -17.265,8.04 C -16.861,7.905 -15.963,7.596 -15.802,7.464 C -15.593,7.293 -13.741,5.894 -13.811,3.386 C -13.818,3.118 -13.727,3.031 -13.61,2.901 C -13.543,2.827 -12.894,2.2 -13.006,1.813 C -13.304,2.253 -13.602,2.484 -13.692,2.529 C -13.781,2.574 -13.878,2.626 -13.945,2.461 C -14.012,2.298 -14.072,1.857 -14.959,1.984 C -15.772,2.101 -16.442,2.239 -17.265,3.356 L -17.265,-2.99 C -17.265,-3.807 -16.603,-4.47 -15.785,-4.47 L -14.605,-4.47 C -14.475,-4.205 -14.401,-4.034 -14.303,-3.807 C -14.162,-3.481 -13.705,-2.317 -13.487,-1.947 C -13.27,-1.577 -12.954,-1.088 -12.954,-1.088 C -12.954,-1.088 -13.052,-0.315 -13.03,0.131 C -13.009,0.577 -12.769,1.567 -12.769,1.567 C -12.769,1.567 -12.682,1.729 -12.726,1.904 C -12.769,2.078 -12.835,2.262 -12.791,2.578 C -12.748,2.893 -12.606,3.383 -12.356,3.611 C -12.106,3.839 -11.932,3.97 -11.791,3.959 C -11.649,3.948 -11.432,3.742 -11.149,3.078 C -11.149,3.078 -11.301,3.057 -11.421,3.089 C -11.54,3.122 -11.464,3.024 -11.442,2.991 C -11.421,2.959 -11.138,2.741 -11.279,2.469 C -11.421,2.197 -12.099,1.379 -11.954,1.186 C -11.856,1.055 -11.801,1.175 -11.649,1.338 C -11.497,1.501 -11.16,1.893 -11.105,1.871 C -11.051,1.849 -11.214,1.283 -11.801,0.674 C -11.801,0.674 -11.638,0.598 -11.801,0.294 C -11.964,-0.011 -12.204,-0.326 -12.236,-0.391 C -12.269,-0.457 -12.269,-0.609 -12.171,-0.522 C -12.073,-0.435 -11.149,0.304 -10.246,0.304 C -9.593,0.304 -9.538,0.103 -9.419,0.043 C -9.311,-0.011 -9.147,-0.196 -9.115,-0.294 C -9.082,-0.391 -9.039,-0.467 -8.876,-0.522 C -8.712,-0.576 -8.179,-0.707 -8.103,-1.403 C -8.103,-1.403 -7.82,-1.751 -8.169,-2.284 C -8.169,-2.284 -5.443,-1.917 -4.287,-4.47 L 1.12,-4.47 C 1.938,-4.47 2.6,-3.807 2.6,-2.99 L 2.6,-0.136 C 2.138,0.137 1.138,0.261 1.001,0.261 C 0.837,0.261 0.131,0.272 0,0 M -11.877,6.181 C -11.964,6.159 -12.064,6.201 -12.201,6.064 C -12.245,6.021 -12.299,5.925 -12.302,5.83 C -12.31,5.547 -12.922,5.841 -12.998,5.865 C -13.193,5.926 -13.498,6.113 -14.172,6.874 C -14.847,7.636 -15.086,9.202 -15.108,9.822 C -15.13,10.442 -14.858,11.573 -14.053,12.639 C -13.248,13.705 -11.845,13.89 -11.66,13.89 C -11.475,13.89 -11.301,13.868 -11.29,13.759 C -11.279,13.65 -11.312,13.65 -11.312,13.52 C -11.312,13.52 -11.214,13.281 -11.247,12.9 C -11.321,12.031 -12.149,11.355 -12.552,11.018 C -12.954,10.681 -12.911,10.235 -12.9,9.789 C -12.889,9.344 -12.541,7.864 -12.465,7.614 C -12.389,7.364 -11.897,6.502 -11.82,6.393 C -11.744,6.284 -11.791,6.203 -11.877,6.181 M -9.718,1.619 C -10.158,1.932 -10.411,2.521 -10.679,3.282 C -10.948,4.042 -11.104,4.572 -11.224,4.914 C -11.343,5.257 -11.425,5.287 -11.44,5.377 C -11.455,5.466 -11.425,5.518 -11.388,5.555 C -11.388,5.555 -10.732,5.451 -10.187,5.205 C -9.643,4.959 -9.658,4.914 -9.189,4.601 C -8.719,4.288 -8.532,3.64 -8.406,3.401 C -8.279,3.162 -7.845,2.98 -7.785,2.95 C -7.725,2.921 -7.53,2.779 -7.53,2.779 C -5.636,2.056 -4.365,1.999 -4.305,1.984 C -4.245,1.97 -4.216,1.917 -4.216,1.917 C -4.395,1.642 -6.08,1.589 -6.08,1.589 C -6.08,1.589 -6.661,1.604 -7.615,1.328 C -8.57,1.053 -9.278,1.306 -9.718,1.619"/>
      </g>
      <g style="fill: rgb(196, 18, 48); fill-opacity: 1;" transform="matrix(1.25, 0, 0, -1.25, -85.4742, 891.74)" id="g2596">
        <path id="path2598" style="fill: rgb(196, 18, 48); fill-opacity: 1; fill-rule: nonzero; stroke: none;" d="M 0,0 C -6.078,0 -7.626,3.811 -7.626,7.924 C -7.626,12 -6.038,15.812 0.037,15.812 C 6.037,15.812 7.696,12 7.696,7.924 C 7.696,3.774 6.037,0 0,0 M 0.037,13.17 C -3.547,13.17 -4.34,10.831 -4.34,7.924 C -4.34,4.981 -3.547,2.641 0,2.641 C 3.62,2.641 4.413,4.944 4.413,7.924 C 4.413,10.793 3.697,13.17 0.037,13.17"/>
      </g>
    </g>
  </g>
</svg>